<?xml version="1.0" standalone="no"?>
<!DOCTYPE svg PUBLIC "-//W3C//DTD SVG 20010904//EN"
 "http://www.w3.org/TR/2001/REC-SVG-20010904/DTD/svg10.dtd">
<svg version="1.0" xmlns="http://www.w3.org/2000/svg"
 width="500.000000pt" height="500.000000pt" viewBox="0 0 500.000000 500.000000"
 preserveAspectRatio="xMidYMid meet">

<g transform="translate(0.000000,500.000000) scale(0.100000,-0.100000)"
fill="white" >
<path d="M2768 4375 c-2 -2 -21 -6 -43 -9 -48 -5 -75 -15 -75 -26 0 -5 -15
-12 -32 -15 -18 -4 -46 -15 -63 -23 -41 -22 -96 -41 -90 -32 3 5 -3 6 -13 3
-10 -2 -44 -32 -76 -66 -31 -34 -75 -81 -97 -104 -21 -24 -39 -47 -39 -53 0
-5 -6 -10 -13 -10 -18 0 -107 -88 -107 -105 0 -8 -5 -17 -12 -21 -7 -5 -9 -2
-4 7 4 8 0 5 -8 -5 -9 -11 -16 -31 -17 -45 -1 -34 -5 -58 -18 -101 -6 -19 -16
-55 -23 -80 -8 -25 -19 -55 -26 -67 -9 -16 -10 -38 -4 -77 5 -31 5 -61 0 -70
-5 -9 -6 -20 -3 -26 3 -5 -2 -21 -11 -35 -15 -23 -15 -27 1 -51 13 -20 22 -24
40 -20 23 6 24 4 19 -35 -3 -23 2 -65 11 -95 9 -30 18 -83 20 -117 9 -119 16
-147 36 -160 24 -15 25 -37 1 -30 -15 3 -22 -5 -35 -39 -14 -35 -15 -54 -7
-103 22 -133 29 -137 48 -33 6 32 19 74 28 94 l17 36 14 -26 c8 -15 11 -35 8
-46 -3 -10 -8 -28 -10 -41 -3 -12 -14 -32 -26 -45 -19 -20 -20 -25 -7 -50 7
-15 18 -29 23 -31 20 -6 35 103 41 297 5 167 10 207 31 280 14 47 29 104 34
128 5 23 14 52 20 63 6 13 7 19 1 15 -6 -4 -8 2 -5 14 7 24 11 25 37 3 21 -18
21 -18 4 3 -23 26 -23 34 1 34 12 0 34 -20 56 -51 23 -30 43 -48 51 -45 15 6
70 -56 63 -70 -2 -4 -15 -9 -29 -11 -47 -5 -50 -6 -50 -20 0 -7 -6 -13 -13
-13 -12 0 -38 -29 -61 -68 -12 -19 37 -33 88 -23 45 8 76 -1 75 -22 0 -7 -24
-24 -52 -38 -29 -14 -51 -31 -50 -37 2 -6 -7 -19 -20 -29 -12 -10 -29 -27 -37
-37 -14 -18 -13 -19 10 -12 70 22 167 8 155 -22 -3 -7 -5 -17 -5 -22 0 -4 -13
-13 -30 -20 -31 -13 -32 -30 0 -30 10 0 20 -5 22 -12 4 -11 12 -14 68 -24 55
-10 78 -6 145 26 68 32 106 62 114 91 2 8 4 34 6 59 3 64 3 64 26 78 19 12 20
11 14 -7 -4 -12 -2 -21 4 -21 6 0 11 -7 11 -16 0 -11 5 -14 16 -10 14 5 15 4
5 -8 -13 -16 -6 -56 10 -56 5 0 8 -3 7 -7 -1 -5 3 -26 9 -48 11 -44 11 -179
-1 -235 -5 -19 -9 -43 -9 -52 -1 -9 -5 -14 -9 -12 -10 6 -11 -20 -1 -30 4 -4
8 -15 8 -24 0 -9 6 -16 13 -14 19 3 14 -26 -5 -31 -14 -4 -12 -5 5 -6 21 -1
26 8 23 37 -1 7 3 11 10 10 6 -2 13 8 14 20 1 13 7 27 13 31 10 6 8 55 -3 89
-6 15 13 64 27 73 24 15 40 -22 42 -96 1 -73 1 -74 -27 -79 -16 -3 -26 -10
-22 -16 9 -14 48 -13 63 2 7 7 12 8 12 3 0 -4 8 2 19 13 l18 22 19 -21 c23
-26 23 -22 1 -47 -15 -17 -23 -19 -47 -11 -34 12 -96 -2 -131 -30 -30 -22 -99
-27 -99 -6 0 33 -102 59 -128 33 -9 -9 -7 -14 6 -24 16 -11 16 -13 -1 -32 -13
-14 -27 -19 -44 -16 -15 3 -30 -1 -34 -8 -12 -18 -11 -30 2 -23 6 4 13 -2 16
-14 5 -18 8 -19 21 -9 12 10 14 10 8 1 -4 -8 -1 -13 8 -13 9 0 16 -3 16 -7 0
-7 -132 -44 -137 -39 -2 1 6 19 16 39 10 20 21 34 24 30 3 -3 5 4 4 15 -1 13
-10 23 -24 27 -28 7 -29 29 -3 62 11 14 22 41 26 62 3 20 15 49 25 64 20 28
18 74 -3 61 -6 -4 -8 1 -3 16 6 20 5 21 -17 10 -12 -7 -31 -20 -42 -29 -10 -9
-20 -15 -22 -13 -11 6 -32 0 -50 -14 -10 -8 -14 -13 -8 -10 7 3 15 -1 18 -10
8 -22 8 -26 -3 -19 -6 3 -16 -2 -23 -10 -7 -9 -20 -25 -30 -35 -9 -10 -14 -21
-11 -24 4 -3 1 -6 -6 -6 -7 0 -10 -4 -6 -10 3 -5 -2 -17 -12 -27 -10 -10 -19
-33 -21 -50 -1 -18 -7 -44 -12 -58 -7 -17 -7 -24 0 -20 6 3 10 -1 10 -9 0 -9
4 -16 9 -16 5 0 7 -10 3 -22 -3 -14 -2 -19 6 -14 8 4 12 0 12 -11 0 -10 11
-36 24 -57 13 -22 21 -47 18 -55 -4 -10 -1 -12 8 -6 8 5 11 4 7 -2 -3 -5 -2
-23 3 -39 4 -16 9 -23 9 -16 1 6 12 12 26 12 14 0 25 5 25 11 0 18 44 48 60
41 20 -9 52 -8 69 2 10 6 12 5 7 -2 -4 -8 0 -12 12 -12 10 0 22 -3 26 -7 4 -5
12 -9 17 -9 5 -1 14 -2 19 -3 6 0 10 -6 10 -12 0 -16 -26 -39 -35 -31 -5 4 -5
1 0 -7 6 -11 14 -7 37 18 24 27 28 29 28 11 0 -11 -4 -20 -10 -20 -5 0 -10 -7
-10 -15 0 -9 -9 -15 -24 -15 -22 0 -23 -2 -13 -24 7 -14 15 -20 18 -14 4 6 9
7 13 0 3 -5 -3 -17 -13 -26 -11 -10 -17 -25 -14 -37 3 -10 1 -19 -4 -19 -5 0
-10 -7 -10 -15 0 -8 4 -12 9 -9 5 4 8 0 6 -8 -2 -8 10 -26 26 -40 22 -19 26
-27 16 -33 -9 -5 -11 -4 -6 3 4 7 2 12 -4 12 -6 0 -13 -7 -17 -16 -3 -8 -12
-13 -19 -10 -15 6 -20 -20 -6 -26 4 -1 2 -14 -5 -28 -7 -14 -13 -19 -13 -12 0
6 -5 12 -11 12 -5 0 -7 -6 -3 -12 5 -8 1 -7 -10 2 -25 20 -43 21 -58 2 -9 -10
-9 -13 -1 -9 8 5 11 0 10 -13 -2 -25 -17 -26 -24 -1 -3 12 -11 17 -19 14 -8
-3 -14 0 -14 7 0 6 -4 9 -9 5 -5 -3 -12 -1 -16 5 -4 6 -11 7 -17 4 -7 -5 -9
-1 -5 9 4 11 1 15 -14 12 -12 -2 -19 2 -19 11 0 9 -7 14 -17 12 -11 -2 -17 2
-15 10 1 8 -2 11 -8 7 -13 -8 -1 -25 47 -68 18 -15 34 -36 37 -45 7 -21 83
-72 107 -72 9 0 19 -7 23 -15 3 -8 17 -20 31 -25 14 -5 25 -15 25 -22 0 -9 3
-9 12 0 19 19 27 14 37 -21 7 -25 9 -27 10 -9 1 26 9 28 26 5 9 -12 10 -23 4
-35 -7 -14 -6 -16 6 -12 8 4 15 10 15 15 0 5 5 9 11 9 6 0 9 -7 5 -15 -5 -14
17 -21 47 -16 5 1 6 -3 3 -8 -4 -5 1 -17 10 -26 16 -16 15 -16 -16 -13 -32 3
-34 1 -47 -42 -9 -29 -10 -47 -3 -54 6 -6 10 -18 10 -27 0 -10 6 -20 13 -22 9
-4 9 -6 -1 -6 -9 -1 -10 -6 -2 -20 12 -24 -7 -42 -21 -20 -8 13 -13 6 -10 -14
0 -4 -15 -7 -34 -7 -38 0 -89 27 -111 59 -8 11 -22 21 -30 21 -8 0 -14 3 -14
8 0 4 -28 21 -62 37 -43 21 -90 58 -152 120 -50 49 -83 78 -73 65 9 -14 20
-32 24 -40 4 -8 20 -25 35 -39 16 -13 27 -29 24 -36 -2 -7 1 -21 9 -31 10 -14
10 -24 3 -39 -8 -16 -8 -18 2 -8 10 9 19 7 41 -10 23 -16 32 -18 41 -9 17 17
25 15 32 -10 4 -17 -3 -32 -29 -58 l-35 -36 49 -53 c29 -33 53 -51 60 -47 7 5
10 2 9 -6 -2 -7 4 -12 14 -10 13 2 16 -2 12 -13 -4 -10 5 -28 25 -49 l31 -32
-24 -13 c-22 -12 -27 -11 -54 20 l-29 33 -51 -40 -50 -41 21 -25 c30 -35 74
-62 81 -49 4 5 -1 14 -10 19 -16 9 -15 11 3 20 24 13 34 7 26 -16 -5 -12 -2
-14 11 -9 32 12 6 -13 -35 -34 -32 -16 -44 -18 -55 -8 -11 9 -14 8 -14 -2 0
-11 -2 -11 -10 1 -8 12 -10 12 -15 -2 -6 -15 -11 -13 -37 10 -17 15 -34 26
-39 25 -5 -2 -9 2 -9 8 0 6 -11 24 -25 41 l-25 30 0 -26 c0 -16 7 -27 21 -31
27 -9 6 -25 -21 -18 -15 4 -21 -4 -31 -36 -7 -23 -10 -43 -7 -46 6 -6 97 -30
151 -39 20 -4 37 -11 37 -15 0 -4 15 -13 33 -19 l32 -11 -32 3 c-31 2 -33 1
-33 -29 0 -17 -3 -35 -7 -38 -6 -6 -12 -193 -13 -430 -1 -79 -4 -99 -17 -104
-12 -5 -14 -15 -9 -47 l7 -41 -21 39 c-19 35 -21 48 -14 125 10 116 9 154 -5
159 -8 3 -9 8 -2 16 5 6 12 25 14 41 2 17 9 29 14 28 5 -1 9 13 9 32 -1 18 -4
31 -7 29 -11 -6 -16 56 -13 144 l3 82 -34 0 c-19 0 -35 5 -35 11 0 6 -7 9 -15
5 -8 -3 -15 -1 -15 4 0 6 -8 10 -19 10 -14 0 -20 -10 -25 -38 -10 -62 -7 -112
7 -112 7 0 8 -3 2 -8 -15 -11 -17 -26 -25 -152 -3 -63 -8 -119 -9 -125 -2 -5
-3 -38 -2 -72 l1 -63 43 -1 c35 -1 38 -2 17 -8 -14 -5 -32 -7 -41 -5 -19 3
-29 -32 -29 -97 0 -22 -4 -39 -10 -39 -5 0 -10 5 -10 10 0 20 -19 10 -23 -12
-2 -13 -5 7 -6 45 -1 52 -4 67 -16 68 -61 2 -127 1 -131 -3 -4 -5 -24 -230
-20 -235 3 -4 146 -19 150 -16 2 2 0 21 -4 43 -4 22 -3 40 1 40 5 0 9 7 9 16
0 12 6 15 21 11 15 -4 19 -2 15 9 -3 8 1 14 8 14 9 0 12 -8 8 -25 -2 -14 1
-32 8 -40 7 -9 8 -15 2 -15 -5 0 -12 -13 -14 -29 l-4 -29 75 -7 c52 -5 76 -4
79 4 2 6 16 11 30 11 21 0 24 -2 12 -10 -18 -12 18 -13 106 -4 l59 6 2 52 c2
39 8 55 25 69 25 21 31 41 22 77 l-6 25 -14 -25 c-12 -23 -13 -19 -9 43 3 64
15 108 15 59 0 -13 6 -22 15 -22 9 0 12 6 8 18 -5 13 -3 15 7 5 10 -9 11 -34
2 -120 -5 -59 -10 -125 -10 -146 -1 -33 2 -37 21 -32 12 2 58 9 102 15 120 17
125 19 125 47 0 15 4 22 11 17 6 -3 15 0 20 7 6 10 9 6 9 -13 0 -16 5 -28 10
-28 11 0 147 35 195 50 l30 10 -3 86 c-2 53 1 91 7 97 8 8 11 6 11 -6 0 -9 6
-16 13 -14 9 1 12 -19 12 -74 l0 -76 50 17 c57 21 172 69 227 95 24 12 42 30
49 49 9 23 13 27 16 13 6 -25 20 -22 93 21 43 25 66 45 71 62 6 20 7 21 8 5 1
-16 3 -17 10 -6 5 8 18 15 28 16 10 1 42 18 71 39 47 34 52 42 52 75 0 30 4
37 20 38 14 1 20 -4 20 -18 0 -10 3 -19 8 -19 17 0 102 83 102 101 0 13 7 19
23 19 30 0 145 102 153 136 3 13 12 24 19 24 13 0 105 96 105 110 0 4 -11 10
-25 12 -14 3 -25 1 -25 -5 0 -5 -7 -4 -15 3 -13 11 -15 8 -15 -18 0 -25 -3
-29 -20 -25 -11 3 -20 13 -20 23 0 15 -9 17 -60 16 -38 -1 -60 -5 -60 -12 0
-7 -6 -14 -14 -17 -18 -7 -17 -48 1 -62 18 -14 5 -57 -16 -53 -13 3 -15 15
-13 70 2 40 -1 68 -7 73 -6 3 -11 2 -11 -3 0 -6 -19 -8 -44 -5 -37 3 -46 1
-55 -16 -6 -10 -8 -32 -6 -48 3 -15 1 -41 -4 -58 -8 -25 -9 -26 -10 -7 -1 13
-7 22 -17 22 -14 0 -15 7 -10 43 7 47 -9 75 -38 64 -7 -3 -19 0 -25 6 -9 9
-14 9 -20 -2 -7 -11 -9 -11 -14 0 -4 11 -6 11 -6 1 -1 -7 -5 -10 -11 -7 -11 7
-13 -3 -10 -53 1 -30 -1 -33 -22 -30 -26 3 -38 45 -16 59 10 7 10 9 1 9 -7 0
-13 7 -13 15 0 11 -10 14 -37 13 -21 -1 -51 2 -66 5 -28 6 -28 5 -25 -40 3
-50 -10 -64 -36 -38 -23 23 -20 45 7 46 15 0 17 2 7 6 -8 4 -21 15 -29 26 -9
13 -21 17 -38 14 -17 -3 -23 -1 -19 8 5 14 -14 25 -45 25 -11 0 -17 -4 -14
-10 3 -5 4 -10 2 -10 -10 0 -73 24 -77 30 -10 13 -85 55 -99 55 -23 0 -55 51
-46 72 8 17 8 17 12 1 3 -10 6 -18 8 -18 3 0 46 40 97 90 50 49 87 90 80 90
-6 0 -9 7 -6 15 4 8 10 15 16 15 5 0 6 -5 2 -12 -4 -7 -3 -8 5 -4 9 6 9 13 -2
29 -10 15 -12 29 -5 46 4 13 6 26 3 29 -3 3 -5 0 -5 -6 0 -7 -6 -12 -14 -12
-8 0 -27 -11 -43 -23 -39 -33 -163 -119 -163 -113 0 2 24 21 53 42 60 44 204
163 229 190 33 36 73 88 61 81 -24 -15 -30 177 -8 235 8 19 -13 33 -66 43
l-36 7 -7 -69 c-12 -125 -28 -258 -33 -283 l-5 -25 -11 22 c-5 13 -17 24 -26
25 -40 4 -48 6 -74 16 -23 10 -26 16 -21 36 5 21 2 25 -15 23 -12 -1 -21 -4
-21 -8 0 -4 -19 -20 -42 -36 -24 -15 -43 -32 -43 -38 0 -5 -8 -21 -18 -35 -13
-19 -19 -22 -26 -12 -4 8 -12 14 -17 15 -5 1 -8 5 -6 10 1 4 -3 7 -9 7 -7 0
-9 14 -4 42 3 24 8 64 9 90 3 33 11 54 29 74 14 15 24 31 21 36 -3 4 -1 8 5 8
6 0 27 11 47 25 20 14 44 25 52 25 8 0 21 8 29 17 9 11 11 12 7 3 -4 -8 11 5
34 30 38 41 71 114 58 128 -3 3 -6 0 -6 -6 0 -7 -5 -12 -10 -12 -6 0 -4 13 5
30 9 17 14 30 13 31 -35 9 -55 -2 -25 -15 8 -3 6 -9 -8 -21 -12 -9 -21 -12
-23 -5 -2 5 -8 7 -14 4 -21 -13 -2 98 19 116 11 9 26 26 32 39 7 12 15 20 18
17 3 -3 12 2 19 12 12 15 12 15 7 -5 -3 -14 -1 -23 6 -23 9 0 9 -5 1 -20 -14
-27 7 -23 33 5 10 11 15 14 11 6 -3 -7 0 -17 7 -22 21 -13 29 -11 29 7 0 8 5
12 10 9 11 -7 13 6 3 30 -5 14 -8 12 -19 -11 -12 -25 -13 -26 -8 -4 8 32 23
50 40 50 7 0 18 9 24 19 14 28 13 36 -5 21 -8 -7 -21 -10 -30 -7 -8 4 -19 -1
-24 -11 -9 -15 -10 -14 -11 6 0 15 -4 21 -12 16 -7 -4 -8 -3 -4 5 5 8 12 9 19
2 9 -7 12 3 13 36 0 31 -2 40 -8 29 -5 -9 -7 -19 -5 -24 3 -4 -6 -8 -19 -8
-21 -2 -24 1 -17 20 4 11 7 46 6 76 0 30 2 60 5 65 16 24 17 221 2 260 -8 21
-8 31 -1 33 6 2 11 8 11 13 0 4 -7 6 -16 2 -12 -4 -14 0 -8 23 4 16 10 31 13
34 3 3 12 17 20 33 8 15 18 27 23 27 5 0 7 3 4 8 -8 14 10 77 22 75 7 -2 12 9
12 25 0 20 -13 41 -45 72 -25 24 -45 50 -45 58 0 7 13 18 29 23 26 9 29 15 27
48 -1 20 -6 42 -10 49 -4 7 -4 12 -1 12 11 0 -48 45 -92 71 -31 19 -40 28 -33
39 5 8 5 19 -1 26 -6 7 -4 16 6 24 12 10 15 10 15 -3 0 -9 5 -19 11 -22 7 -5
9 3 7 21 -2 17 -8 28 -15 27 -7 -2 -13 1 -13 5 0 4 6 14 13 21 10 11 9 13 -3
7 -8 -4 -4 2 10 13 14 12 18 19 9 16 -11 -4 -18 1 -22 15 -4 17 -3 19 8 10 10
-8 15 -8 21 1 4 7 3 9 -3 6 -5 -3 -19 17 -30 46 -21 52 -27 90 -12 81 4 -2 10
4 14 15 7 23 31 31 64 19 18 -6 22 -5 18 6 -3 8 4 18 18 24 21 10 26 8 39 -20
9 -17 16 -44 16 -59 0 -15 4 -30 9 -33 5 -3 12 -18 15 -32 4 -15 18 -42 32
-60 42 -54 90 -243 66 -258 -5 -3 -9 8 -10 24 -1 17 -3 44 -4 60 -1 17 -5 30
-9 30 -4 0 -9 10 -12 22 -4 12 -9 19 -13 15 -4 -4 -1 -18 6 -31 7 -14 10 -38
7 -55 -4 -19 -2 -33 6 -38 7 -4 12 -12 12 -18 2 -32 18 -105 24 -105 5 0 13
-93 15 -182 1 -16 4 -28 8 -28 3 0 4 -25 2 -55 -3 -30 -1 -63 5 -72 8 -14 12
-11 27 22 19 45 21 56 25 137 2 34 6 55 12 51 6 -4 8 10 5 38 -4 24 -3 53 2
64 4 11 3 28 -2 39 -5 10 -10 39 -11 64 0 35 -2 41 -9 27 -7 -16 -8 -15 -5 8
3 15 0 27 -5 27 -4 0 -7 14 -6 30 1 18 8 30 16 30 9 0 12 8 8 28 -2 15 -8 50
-11 77 -9 62 -13 69 -32 53 -13 -10 -15 -8 -13 12 1 14 2 32 1 40 -1 13 -2 13
-11 0 -8 -12 -10 -11 -10 7 0 12 -5 25 -12 29 -7 5 -9 2 -4 -7 4 -8 1 -6 -7 4
-8 10 -13 28 -10 40 3 16 2 18 -5 9 -7 -11 -10 -11 -16 3 -3 9 -10 14 -15 10
-5 -3 -12 4 -16 15 -4 11 -11 18 -16 15 -5 -3 -6 1 -3 9 3 9 1 16 -5 16 -6 0
-8 7 -5 15 8 21 22 10 34 -28 9 -28 9 -29 6 -4 -5 37 11 34 24 -5 9 -29 9 -30
6 -5 -2 15 1 30 5 33 5 3 9 18 9 34 0 22 -4 28 -15 24 -8 -4 -15 -10 -15 -16
0 -5 5 -6 12 -2 6 4 8 3 5 -4 -6 -9 -27 -9 -47 -2 -3 1 -9 2 -13 1 -5 -1 -6 3
-3 8 4 5 0 12 -6 15 -7 3 -4 4 8 1 41 -10 54 4 54 55 0 27 -4 52 -10 55 -5 3
-10 12 -10 18 0 7 4 6 10 -3 8 -13 10 -13 10 1 0 9 -8 23 -17 30 -15 12 -16
12 -8 -1 8 -13 7 -13 -8 -1 -18 14 -23 26 -8 17 5 -3 12 2 15 11 5 11 -8 30
-39 59 -41 40 -62 76 -33 58 7 -4 8 -3 4 4 -4 7 -2 12 4 12 6 0 13 -7 16 -15
7 -18 24 -20 24 -2 0 7 -14 26 -32 43 -17 16 -28 23 -24 17 4 -7 2 -13 -3 -13
-6 0 -11 5 -11 12 0 6 -3 8 -7 5 -3 -4 2 -15 11 -26 27 -30 1 -35 -40 -8 -19
14 -35 28 -34 32 2 10 -33 30 -102 58 -19 8 -24 15 -17 23 7 8 -3 14 -33 19
-24 4 -51 7 -62 6 -10 -2 -15 2 -12 8 5 7 -2 7 -22 0 -16 -5 -29 -17 -29 -25
0 -9 6 -13 16 -9 13 5 14 4 3 -7 -11 -11 -17 -8 -34 15 -11 15 -29 28 -41 28
-12 1 1 6 28 10 70 13 86 13 115 5 15 -4 10 1 -13 14 -22 12 -45 19 -53 16
-12 -5 -18 4 -16 24 1 6 -27 11 -58 12 -29 1 -135 -14 -165 -23 -26 -8 -28 -7
-12 5 9 7 17 16 17 19 0 3 -8 8 -17 10 -14 4 -14 5 3 6 12 0 43 11 70 23 l49
22 -50 7 c-69 10 -173 11 -178 2 -3 -5 26 -8 63 -8 43 0 74 -5 82 -13 11 -11
5 -12 -29 -6 -23 3 -56 2 -72 -4 -23 -8 -31 -8 -31 0 0 6 -3 8 -7 5 -3 -4 -12
-2 -19 4 -13 11 -71 29 -76 24z m657 -466 c4 -6 17 -14 29 -19 l21 -9 -22 0
-23 -1 20 -20 c27 -27 26 -48 -2 -24 -42 37 -53 50 -54 67 -2 19 21 23 31 6z
m170 -69 c10 -11 16 -20 13 -20 -3 0 -13 9 -23 20 -10 11 -16 20 -13 20 3 0
13 -9 23 -20z m-48 -16 c-3 -3 5 -18 18 -32 13 -14 22 -28 19 -31 -5 -6 -53
49 -54 62 0 4 5 7 12 7 6 0 9 -3 5 -6z m-1475 -96 c-7 -7 -12 -8 -12 -2 0 14
12 26 19 19 2 -3 -1 -11 -7 -17z m1295 -94 c-3 -3 -12 -4 -19 -1 -8 3 -5 6 6
6 11 1 17 -2 13 -5z m280 -56 c-3 -7 -5 -2 -5 12 0 14 2 19 5 13 2 -7 2 -19 0
-25z m-22 -8 c4 -11 11 -18 16 -15 5 4 12 -1 15 -9 3 -9 11 -16 18 -16 6 0 12
-10 13 -22 0 -13 -1 -17 -4 -10 -3 7 -13 17 -24 22 -15 9 -18 8 -12 -7 3 -10
12 -25 20 -35 12 -13 12 -17 1 -24 -7 -4 -10 -4 -6 0 4 5 -2 17 -13 29 -10 11
-19 30 -19 42 0 11 -7 31 -16 43 -8 12 -11 22 -5 22 5 0 13 -9 16 -20z m-1198
-126 c29 -75 29 -83 -3 -53 -25 23 -43 55 -58 106 -7 20 -5 22 16 14 15 -5 30
-27 45 -67z m-77 40 c0 -8 -7 -14 -15 -14 -15 0 -21 21 -9 33 10 9 24 -2 24
-19z m121 -11 c13 -16 12 -17 -3 -4 -10 7 -18 15 -18 17 0 8 8 3 21 -13z m919
7 c0 -5 -2 -10 -4 -10 -3 0 -8 5 -11 10 -3 6 -1 10 4 10 6 0 11 -4 11 -10z
m368 -55 c-3 -3 -9 2 -12 12 -6 14 -5 15 5 6 7 -7 10 -15 7 -18z m-61 -27 c-3
-8 -6 -5 -6 6 -1 11 2 17 5 13 3 -3 4 -12 1 -19z m-1202 -17 c-6 -11 27 -7 45
4 20 13 121 14 113 2 -4 -6 1 -8 11 -4 10 4 15 3 11 -3 -3 -6 0 -10 8 -10 8 0
17 -6 20 -14 4 -9 0 -12 -13 -9 -15 4 -18 1 -13 -16 4 -17 2 -20 -11 -15 -9 3
-22 2 -29 -4 -13 -11 -98 -9 -116 3 -7 4 -10 13 -7 21 3 7 1 16 -4 19 -6 4
-10 0 -10 -7 -1 -7 -7 -2 -15 12 -18 32 -18 41 0 34 8 -4 13 -9 10 -13z m235
-5 c0 -3 -4 -8 -10 -11 -5 -3 -10 -1 -10 4 0 6 5 11 10 11 6 0 10 -2 10 -4z
m987 -11 c4 -4 3 -5 -4 -2 -6 4 -13 2 -15 -5 -3 -8 -6 -6 -10 4 -7 17 15 19
29 3z m-971 -23 c-17 -16 -18 -16 -5 5 7 12 15 20 18 17 3 -2 -3 -12 -13 -22z
m1014 -124 c0 -16 -3 -28 -7 -28 -5 0 -8 18 -9 40 0 25 3 36 8 28 4 -7 8 -25
8 -40z m-1375 -38 c-3 -5 -12 -10 -18 -10 -7 0 -6 4 3 10 19 12 23 12 15 0z
m155 -89 c0 -5 -6 -11 -12 -14 -7 -3 -31 -13 -53 -22 l-40 -17 20 22 c29 32
85 53 85 31z m948 -75 c12 -14 13 -17 2 -10 -8 5 -17 9 -20 9 -3 0 -14 6 -25
12 -19 12 -19 12 3 10 13 -1 31 -10 40 -21z m-965 0 c4 -10 0 -12 -14 -9 -10
3 -16 9 -13 14 8 13 21 11 27 -5z m961 -52 c22 -8 20 -21 -4 -29 -25 -8 -41 1
-33 20 6 16 13 18 37 9z m284 -39 c-3 -3 -9 2 -12 12 -6 14 -5 15 5 6 7 -7 10
-15 7 -18z m-1026 -604 c11 -18 12 -18 28 1 l17 21 20 -22 c18 -20 21 -20 27
-5 8 20 54 12 73 -13 12 -15 14 -15 31 0 10 9 25 17 33 17 37 0 53 -56 22 -81
-20 -17 -163 -20 -163 -4 0 7 -14 9 -34 7 -18 -2 -37 1 -40 7 -4 6 -16 11 -26
11 -12 0 -21 10 -25 30 -10 48 13 68 37 31z m312 -29 c3 -5 -1 -9 -9 -9 -8 0
-12 4 -9 9 3 4 7 8 9 8 2 0 6 -4 9 -8z m-127 -828 c-3 -3 -12 -4 -19 -1 -8 3
-5 6 6 6 11 1 17 -2 13 -5z m-117 -174 c0 -15 -5 -12 -26 11 -19 22 -19 22 4
10 12 -6 22 -16 22 -21z m40 -24 c0 -11 -19 -15 -25 -6 -3 5 1 10 9 10 9 0 16
-2 16 -4z m410 -46 c0 -5 -5 -10 -10 -10 -12 0 -71 -39 -81 -54 -4 -4 -15 -4
-25 2 -16 9 -10 15 46 41 74 35 70 34 70 21z m-301 -24 c20 -24 -10 -38 -37
-16 -15 13 -18 20 -10 23 23 9 35 7 47 -7z m221 -81 c0 -8 -4 -15 -9 -15 -5 0
-17 -3 -26 -7 -15 -5 -16 -3 -6 15 13 25 41 29 41 7z m-355 -29 c-9 -13 -26
-28 -39 -34 -19 -8 -26 -7 -39 8 -14 17 -14 20 3 35 15 13 23 14 39 5 17 -9
22 -8 27 5 3 8 10 12 15 9 5 -3 2 -15 -6 -28z m85 24 c0 -5 -5 -10 -11 -10 -5
0 -7 5 -4 10 3 6 8 10 11 10 2 0 4 -4 4 -10z m100 -17 c0 -9 -57 -43 -71 -43
-5 0 -9 5 -9 11 0 5 4 8 9 4 5 -3 12 4 16 15 4 13 15 20 31 20 13 0 24 -3 24
-7z m-270 -57 c0 -3 -4 -8 -10 -11 -5 -3 -10 -1 -10 4 0 6 5 11 10 11 6 0 10
-2 10 -4z m460 -47 c0 -12 -7 -19 -19 -19 -24 0 -35 37 -12 43 23 5 31 -1 31
-24z m-366 5 c19 -7 20 -13 2 -37 -12 -15 -18 -16 -35 -7 -18 9 -19 13 -8 30
13 22 17 23 41 14z m191 -64 c-3 -5 -13 -10 -21 -10 -8 0 -12 5 -9 10 3 6 13
10 21 10 8 0 12 -4 9 -10z m2 -26 c-3 -3 -12 -4 -19 -1 -8 3 -5 6 6 6 11 1 17
-2 13 -5z m283 -45 c0 -26 -3 -30 -22 -27 -26 3 -37 36 -16 49 25 17 38 9 38
-22z m188 4 c3 -21 -2 -25 -25 -22 -4 0 -10 -8 -14 -18 -5 -12 -8 -3 -8 25 -1
39 1 43 22 40 14 -2 23 -11 25 -25z m-733 -108 c0 -49 -5 -108 -11 -131 -6
-22 -8 -62 -5 -90 4 -27 3 -65 0 -84 -4 -19 -7 -29 -8 -22 0 6 -7 12 -15 12
-17 0 -16 -62 2 -68 15 -5 16 10 0 26 -9 9 -9 12 3 12 17 0 26 -65 9 -75 -5
-3 -10 1 -10 9 0 8 -6 19 -14 23 -28 16 -20 180 9 170 6 -3 12 1 12 9 0 8 -6
13 -13 10 -16 -6 -20 54 -16 197 l3 98 27 -3 c27 -3 27 -3 27 -93z m295 44
c-5 -9 -18 -16 -27 -14 -10 2 -21 4 -25 4 -4 1 -3 11 1 24 5 12 14 21 20 20 6
-2 11 3 11 10 1 7 7 4 15 -7 10 -13 11 -24 5 -37z m-130 10 c14 -24 9 -32 -14
-23 -17 7 -23 44 -6 44 5 0 14 -9 20 -21z m34 -4 c3 -8 1 -15 -3 -15 -5 0 -11
7 -15 15 -3 8 -1 15 3 15 5 0 11 -7 15 -15z m706 -5 c0 -5 -5 -10 -11 -10 -5
0 -7 5 -4 10 3 6 8 10 11 10 2 0 4 -4 4 -10z m-624 -46 c-3 -8 0 -11 10 -7 8
3 14 -1 14 -11 0 -9 -8 -16 -19 -16 -15 0 -19 7 -19 30 1 16 5 27 10 24 5 -3
7 -12 4 -20z m-111 4 c5 4 5 1 1 -6 -4 -7 -3 -18 2 -25 5 -7 12 -41 15 -77 4
-36 4 -59 1 -52 -10 23 -24 13 -15 -12 7 -16 5 -32 -5 -51 -18 -35 -18 -65 0
-65 23 0 37 -82 16 -95 -7 -4 -9 2 -4 19 8 32 -9 34 -25 4 -6 -13 -9 -15 -6
-5 3 10 -2 20 -10 23 -17 7 -21 54 -4 54 7 0 10 47 7 149 -2 107 0 147 8 140
6 -5 15 -5 19 -1z m1064 -52 c-9 -8 -10 -7 -5 7 3 10 7 24 7 30 1 7 3 4 6 -7
3 -10 -1 -23 -8 -30z m-523 -16 c9 0 14 -11 14 -31 0 -27 -3 -30 -22 -23 -13
3 -24 7 -26 9 -1 1 1 24 5 51 6 36 9 42 11 22 2 -16 9 -28 18 -28z m-429 -12
c-3 -7 -5 -2 -5 12 0 14 2 19 5 13 2 -7 2 -19 0 -25z m33 6 c0 -8 -4 -14 -10
-14 -5 0 -10 9 -10 21 0 11 5 17 10 14 6 -3 10 -13 10 -21z m-640 6 c0 -5 -10
-10 -22 -9 -22 0 -22 1 -3 9 11 5 21 9 23 9 1 1 2 -3 2 -9z m47 -5 c0 -8 -4
-12 -9 -9 -5 3 -6 10 -3 15 9 13 12 11 12 -6z m1183 -14 c0 -18 -10 -41 -25
-57 l-25 -27 0 51 c0 31 5 52 13 55 28 12 37 6 37 -22z m-360 -10 c0 -22 -4
-28 -17 -26 -10 2 -21 4 -25 4 -5 1 -8 12 -8 26 0 20 5 25 25 25 21 0 25 -5
25 -29z m518 -7 c2 -24 -1 -30 -18 -30 -16 0 -20 7 -20 32 0 43 34 41 38 -2z
m181 -49 c-3 -2 -15 -2 -27 2 -26 6 -32 53 -7 53 8 0 14 3 14 8 -5 30 5 19 14
-16 5 -23 8 -44 6 -47z m-1173 51 c2 -20 -1 -22 -11 -13 -7 7 -10 18 -8 24 8
21 18 15 19 -11z m31 -8 c-3 -8 -6 -5 -6 6 -1 11 2 17 5 13 3 -3 4 -12 1 -19z
m221 -11 c2 -11 -5 -27 -16 -37 -19 -18 -20 -18 -29 3 -5 12 -7 30 -5 40 5 24
46 19 50 -6z m-18 -126 c-11 -33 -20 -67 -20 -75 0 -13 -28 -36 -44 -36 -3 0
3 15 14 33 11 17 20 38 20 46 0 17 42 102 47 97 2 -2 -5 -31 -17 -65z m408 28
c-3 -8 -7 -3 -11 10 -4 17 -3 21 5 13 5 -5 8 -16 6 -23z m-183 -106 c-4 -24
-10 -31 -21 -26 -13 5 -13 7 -2 14 10 7 9 9 -4 9 -13 0 -18 8 -18 30 0 27 8
35 33 31 4 0 8 14 9 32 1 24 2 21 5 -13 3 -24 2 -59 -2 -77z m159 106 c-3 -6
-1 -15 5 -19 7 -4 15 -25 18 -47 5 -37 3 -41 -21 -45 -29 -6 -30 -2 -20 76 4
25 11 46 16 46 5 0 6 -5 2 -11z m200 -45 c9 -25 7 -64 -4 -64 -5 0 -10 -10
-11 -22 l0 -23 -9 21 c-5 12 -13 24 -17 27 -5 3 -7 22 -5 41 3 26 9 36 22 36
10 0 21 -7 24 -16z m178 -8 c4 -6 8 -23 8 -37 0 -22 -4 -27 -25 -25 -22 1 -25
5 -25 43 0 36 3 41 18 36 9 -4 20 -11 24 -17z m-1397 -6 c3 -5 2 -10 -4 -10
-5 0 -13 5 -16 10 -3 6 -2 10 4 10 5 0 13 -4 16 -10z m398 -35 c-3 -9 -8 -14
-10 -11 -3 3 -2 9 2 15 9 16 15 13 8 -4z m627 -69 c0 -2 -6 -9 -13 -15 -10 -8
-14 -7 -14 4 0 8 6 15 14 15 7 0 13 -2 13 -4z m-173 -53 c-3 -10 -5 -4 -5 12
0 17 2 24 5 18 2 -7 2 -21 0 -30z m189 -52 c-1 -48 -4 -56 -20 -56 -13 0 -22
10 -27 28 -6 23 -4 30 13 36 18 7 19 8 5 14 -26 10 -21 35 7 35 22 0 23 -4 22
-57z m-565 -14 c-10 -9 -11 -8 -5 6 3 10 9 15 12 12 3 -3 0 -11 -7 -18z m199
-12 c0 -14 -4 -25 -8 -25 -7 0 -8 31 -3 48 4 11 11 -3 11 -23z m-214 -31 c-4
-9 -9 -15 -11 -12 -3 3 -3 13 1 22 4 9 9 15 11 12 3 -3 3 -13 -1 -22z m-191
-43 c3 -5 1 -12 -5 -16 -5 -3 -10 1 -10 9 0 18 6 21 15 7z m-175 -108 c0 -30
-3 -33 -30 -33 -26 0 -30 4 -30 28 0 35 6 42 36 40 20 -2 24 -8 24 -35z"/>
<path d="M2741 734 c0 -11 3 -14 6 -6 3 7 2 16 -1 19 -3 4 -6 -2 -5 -13z"/>
<path d="M2725 600 c-3 -5 -1 -10 4 -10 6 0 11 5 11 10 0 6 -2 10 -4 10 -3 0
-8 -4 -11 -10z"/>
<path d="M3058 4333 c6 -2 18 -2 25 0 6 3 1 5 -13 5 -14 0 -19 -2 -12 -5z"/>
<path d="M3670 3831 c0 -6 4 -13 10 -16 6 -3 7 1 4 9 -7 18 -14 21 -14 7z"/>
<path d="M3700 3656 c0 -8 4 -17 9 -20 5 -4 7 3 4 14 -6 23 -13 26 -13 6z"/>
<path d="M3400 3581 c0 -6 4 -13 10 -16 6 -3 7 1 4 9 -7 18 -14 21 -14 7z"/>
<path d="M216 3505 c-15 -35 -25 -68 -22 -74 3 -5 25 -20 49 -33 l42 -24 0 92
c0 51 -3 90 -8 87 -4 -2 -5 -8 -3 -12 3 -4 -2 -8 -10 -8 -10 0 -11 4 -4 11 14
14 13 26 -3 26 -7 0 -25 -29 -41 -65z m61 2 c0 -8 -6 -14 -14 -14 -9 0 -10 4
-2 14 6 7 12 13 14 13 1 0 2 -6 2 -13z m0 -40 c0 -8 -6 -14 -14 -14 -9 0 -10
4 -2 14 6 7 12 13 14 13 1 0 2 -6 2 -13z m0 -40 c0 -8 -6 -14 -14 -14 -9 0
-10 4 -2 14 6 7 12 13 14 13 1 0 2 -6 2 -13z"/>
<path d="M3451 3364 c0 -11 3 -14 6 -6 3 7 2 16 -1 19 -3 4 -6 -2 -5 -13z"/>
<path d="M121 3251 c-12 -38 -21 -73 -21 -78 1 -9 149 -95 171 -98 12 -2 14
14 14 79 0 81 -8 111 -26 101 -5 -4 -9 -2 -9 3 0 8 -90 62 -103 62 -3 0 -14
-31 -26 -69z m156 -24 c0 -8 -6 -14 -14 -14 -9 0 -10 4 -2 14 6 7 12 13 14 13
1 0 2 -6 2 -13z m0 -40 c0 -8 -6 -14 -14 -14 -9 0 -10 4 -2 14 6 7 12 13 14
13 1 0 2 -6 2 -13z m0 -40 c0 -8 -6 -14 -14 -14 -9 0 -10 4 -2 14 6 7 12 13
14 13 1 0 2 -6 2 -13z m0 -40 c0 -8 -6 -14 -14 -14 -9 0 -10 4 -2 14 6 7 12
13 14 13 1 0 2 -6 2 -13z"/>
<path d="M3641 3304 c0 -11 3 -14 6 -6 3 7 2 16 -1 19 -3 4 -6 -2 -5 -13z"/>
<path d="M2367 3233 c-4 -3 -7 -11 -7 -17 0 -6 5 -5 12 2 6 6 9 14 7 17 -3 3
-9 2 -12 -2z"/>
<path d="M66 3042 c-3 -5 -10 -38 -17 -75 -9 -49 -9 -71 -2 -78 6 -6 53 -35
105 -64 82 -47 95 -52 109 -39 14 12 16 12 16 -1 0 -8 -4 -12 -9 -9 -4 3 -8 1
-8 -4 0 -6 6 -12 13 -15 10 -4 12 15 12 77 0 83 -8 111 -27 100 -6 -4 -8 -2
-5 3 4 6 -32 33 -83 62 -97 55 -96 55 -104 43z m211 -135 c0 -8 -6 -14 -14
-14 -9 0 -10 4 -2 14 6 7 12 13 14 13 1 0 2 -6 2 -13z m0 -40 c0 -8 -6 -14
-14 -14 -9 0 -10 4 -2 14 6 7 12 13 14 13 1 0 2 -6 2 -13z m0 -40 c0 -8 -6
-14 -14 -14 -9 0 -10 4 -2 14 6 7 12 13 14 13 1 0 2 -6 2 -13z"/>
<path d="M3802 2820 c-23 -22 -23 -43 1 -105 7 -16 11 -61 11 -99 -2 -75 4
-72 35 21 23 69 27 124 10 172 -13 36 -27 39 -57 11z"/>
<path d="M16 2739 c-3 -17 -6 -58 -6 -89 l0 -58 115 -66 c63 -36 117 -66 121
-66 4 0 15 -6 23 -14 15 -13 16 -6 16 79 0 82 -2 93 -17 90 -10 -2 -15 1 -12
8 2 7 -22 26 -54 44 -31 18 -85 48 -118 68 l-62 35 -6 -31z m261 -152 c0 -8
-6 -14 -14 -14 -9 0 -10 4 -2 14 6 7 12 13 14 13 1 0 2 -6 2 -13z m0 -40 c0
-8 -6 -14 -14 -14 -9 0 -10 4 -2 14 6 7 12 13 14 13 1 0 2 -6 2 -13z m0 -40
c0 -8 -6 -14 -14 -14 -9 0 -10 4 -2 14 6 7 12 13 14 13 1 0 2 -6 2 -13z m0
-42 c0 -8 -4 -12 -9 -9 -5 3 -6 10 -3 15 9 13 12 11 12 -6z"/>
<path d="M3760 2761 c0 -6 -11 -22 -24 -36 -24 -26 -24 -28 -10 -75 8 -27 12
-60 8 -74 -4 -19 -1 -26 15 -31 12 -3 21 -12 21 -18 1 -23 24 28 31 67 8 45 1
70 -30 105 -12 14 -18 27 -14 30 9 7 16 41 8 41 -3 0 -5 -4 -5 -9z"/>
<path d="M3721 2744 c0 -11 3 -14 6 -6 3 7 2 16 -1 19 -3 4 -6 -2 -5 -13z"/>
<path d="M2216 2567 c3 -20 7 -54 10 -74 2 -20 7 -39 9 -42 9 -9 3 55 -11 104
-10 40 -12 42 -8 12z"/>
<path d="M3706 2585 c-9 -26 -7 -32 5 -12 6 10 9 21 6 23 -2 3 -7 -2 -11 -11z"/>
<path d="M3712 2520 c2 -25 5 -28 15 -17 8 7 11 21 7 30 -10 28 -24 19 -22
-13z"/>
<path d="M3788 2516 c-19 -14 -26 -42 -8 -31 9 6 34 45 28 45 -2 0 -11 -7 -20
-14z"/>
<path d="M3685 2470 c-11 -18 5 -49 25 -47 11 1 21 6 23 12 6 14 -40 48 -48
35z"/>
<path d="M12 2369 l3 -91 120 -70 c66 -38 127 -71 135 -73 13 -2 15 11 15 81
0 46 -5 88 -10 93 -12 11 -252 151 -260 151 -3 0 -4 -41 -3 -91z m262 -67 c3
-5 -1 -9 -9 -9 -8 0 -12 4 -9 9 3 4 7 8 9 8 2 0 6 -4 9 -8z m3 -35 c0 -8 -6
-14 -14 -14 -9 0 -10 4 -2 14 6 7 12 13 14 13 1 0 2 -6 2 -13z m0 -40 c0 -8
-6 -14 -14 -14 -9 0 -10 4 -2 14 6 7 12 13 14 13 1 0 2 -6 2 -13z m0 -40 c0
-8 -6 -14 -14 -14 -9 0 -10 4 -2 14 6 7 12 13 14 13 1 0 2 -6 2 -13z"/>
<path d="M2227 2421 c-3 -14 -11 -18 -26 -14 -17 4 -15 -1 12 -30 31 -32 77
-130 77 -164 0 -32 24 -93 36 -93 10 0 10 6 -2 28 -19 37 -18 40 10 35 13 -3
26 -14 29 -24 3 -10 13 -19 22 -19 15 0 15 3 -2 30 -9 17 -26 33 -36 36 -12 4
-15 9 -8 17 6 8 5 18 -4 30 -8 12 -14 14 -17 6 -9 -26 -66 104 -71 160 -2 26
-13 27 -20 2z"/>
<path d="M3676 2384 c-9 -24 -6 -42 4 -19 8 19 9 19 9 -2 1 -13 6 -23 11 -23
14 0 12 22 -4 43 -12 16 -14 16 -20 1z"/>
<path d="M3560 2229 c0 -5 -4 -7 -10 -4 -5 3 -10 1 -10 -4 0 -6 7 -11 15 -11
8 0 15 7 15 15 0 8 -2 15 -5 15 -3 0 -5 -5 -5 -11z"/>
<path d="M3555 2140 c-3 -5 -1 -10 4 -10 6 0 11 5 11 10 0 6 -2 10 -4 10 -3 0
-8 -4 -11 -10z"/>
<path d="M34 2109 c4 -19 14 -66 22 -106 l15 -72 56 -31 c31 -18 79 -44 107
-60 l52 -27 -1 81 c0 44 -5 88 -10 97 -6 8 -46 36 -90 61 -44 25 -97 56 -119
69 l-38 22 6 -34z m240 -127 c3 -5 -1 -9 -9 -9 -8 0 -12 4 -9 9 3 4 7 8 9 8 2
0 6 -4 9 -8z m3 -35 c0 -8 -6 -14 -14 -14 -9 0 -10 4 -2 14 6 7 12 13 14 13 1
0 2 -6 2 -13z m0 -40 c0 -8 -6 -14 -14 -14 -9 0 -10 4 -2 14 6 7 12 13 14 13
1 0 2 -6 2 -13z m0 -40 c0 -8 -6 -14 -14 -14 -9 0 -10 4 -2 14 6 7 12 13 14
13 1 0 2 -6 2 -13z"/>
<path d="M3410 2120 c0 -5 5 -10 11 -10 5 0 7 5 4 10 -3 6 -8 10 -11 10 -2 0
-4 -4 -4 -10z"/>
<path d="M3479 2052 c-41 -45 -45 -59 -9 -28 19 15 35 34 36 42 3 19 1 18 -27
-14z"/>
<path d="M3514 2046 c-9 -20 -9 -23 2 -19 8 3 14 14 14 24 0 25 -3 24 -16 -5z"/>
<path d="M125 1738 c14 -43 47 -138 60 -170 7 -18 71 -59 90 -58 6 0 10 37 10
86 0 69 -3 87 -15 92 -8 3 -22 10 -30 17 -8 7 -40 26 -72 44 l-56 31 13 -42z
m152 -71 c0 -8 -6 -14 -14 -14 -9 0 -10 4 -2 14 6 7 12 13 14 13 1 0 2 -6 2
-13z m0 -40 c0 -8 -6 -14 -14 -14 -9 0 -10 4 -2 14 6 7 12 13 14 13 1 0 2 -6
2 -13z m0 -40 c0 -8 -6 -14 -14 -14 -9 0 -10 4 -2 14 6 7 12 13 14 13 1 0 2
-6 2 -13z m0 -40 c0 -8 -6 -14 -14 -14 -9 0 -10 4 -2 14 6 7 12 13 14 13 1 0
2 -6 2 -13z"/>
<path d="M2375 1720 c3 -19 10 -39 15 -44 7 -7 7 -1 1 19 -17 54 -21 61 -16
25z"/>
<path d="M3618 1653 c7 -3 16 -2 19 1 4 3 -2 6 -13 5 -11 0 -14 -3 -6 -6z"/>
<path d="M2531 1387 c-13 -21 -12 -21 5 -5 10 10 16 20 13 22 -3 3 -11 -5 -18
-17z"/>
<path d="M3515 1400 c-3 -5 -2 -10 4 -10 5 0 13 5 16 10 3 6 2 10 -4 10 -5 0
-13 -4 -16 -10z"/>
<path d="M2456 1342 c-2 -4 -1 -14 3 -21 6 -9 11 -10 15 -2 4 6 2 11 -4 11 -6
0 -8 5 -5 10 3 6 4 10 1 10 -3 0 -7 -4 -10 -8z"/>
<path d="M1448 1333 c7 -3 16 -2 19 1 4 3 -2 6 -13 5 -11 0 -14 -3 -6 -6z"/>
<path d="M2430 1320 c0 -19 3 -21 12 -12 9 9 9 15 0 24 -9 9 -12 7 -12 -12z"/>
<path d="M1798 1293 c6 -2 18 -2 25 0 6 3 1 5 -13 5 -14 0 -19 -2 -12 -5z"/>
<path d="M1906 1286 c3 -8 12 -12 20 -9 21 8 17 23 -6 23 -13 0 -18 -5 -14
-14z"/>
<path d="M1963 1293 c9 -2 25 -2 35 0 9 3 1 5 -18 5 -19 0 -27 -2 -17 -5z"/>
<path d="M1205 1265 c-38 -13 -63 -24 -54 -24 8 -1 46 10 85 23 38 14 62 24
54 24 -8 0 -46 -10 -85 -23z"/>
<path d="M1748 1283 c7 -3 16 -2 19 1 4 3 -2 6 -13 5 -11 0 -14 -3 -6 -6z"/>
<path d="M2495 1271 c-14 -17 -15 -22 -4 -26 8 -3 15 -17 16 -32 1 -19 -1 -22
-8 -12 -7 12 -10 12 -18 1 -4 -8 -11 -13 -15 -12 -26 6 -21 -11 12 -43 33 -33
41 -36 53 -25 8 8 31 25 51 39 l37 25 -52 53 c-53 51 -53 52 -72 32z m52 -57
c-3 -3 -12 -4 -19 -1 -8 3 -5 6 6 6 11 1 17 -2 13 -5z"/>
<path d="M3800 1240 c0 -25 35 -28 44 -3 4 10 4 14 0 11 -4 -4 -15 -3 -25 3
-16 8 -19 6 -19 -11z"/>
<path d="M3860 1240 c0 -5 5 -10 10 -10 6 0 10 5 10 10 0 6 -4 10 -10 10 -5 0
-10 -4 -10 -10z"/>
<path d="M3470 1185 c-45 -46 -59 -55 -80 -50 -17 4 -21 3 -11 -4 12 -7 11
-12 -1 -30 -8 -11 -18 -18 -21 -14 -4 3 -7 3 -7 0 0 -3 10 -11 21 -18 13 -7
19 -7 15 -1 -3 6 -2 13 4 17 5 3 10 1 10 -4 0 -6 9 -11 19 -11 18 0 36 25 32
45 -1 5 7 1 19 -10 23 -21 58 -27 67 -12 3 6 1 7 -5 3 -7 -4 -10 4 -10 24 1
16 5 30 11 30 5 0 3 8 -4 17 -8 9 -9 14 -2 10 7 -4 13 0 15 10 5 22 -2 53 -11
53 -4 0 -31 -25 -61 -55z"/>
<path d="M2425 1220 c-3 -6 1 -7 9 -4 18 7 21 14 7 14 -6 0 -13 -4 -16 -10z"/>
<path d="M1001 1209 c-34 -14 -121 -79 -121 -91 0 -6 20 6 45 26 24 20 63 45
87 56 43 20 34 27 -11 9z"/>
<path d="M2280 1190 c0 -5 5 -10 11 -10 5 0 7 5 4 10 -3 6 -8 10 -11 10 -2 0
-4 -4 -4 -10z"/>
<path d="M2174 1155 c3 -21 16 -31 16 -12 0 9 -4 18 -9 21 -5 4 -8 -1 -7 -9z"/>
<path d="M2240 1126 c0 -14 5 -26 10 -26 6 0 10 -7 10 -16 0 -13 8 -14 46 -8
34 5 48 3 55 -7 6 -10 9 -2 9 22 0 35 -1 37 -42 42 -24 3 -53 9 -65 13 -20 5
-23 3 -23 -20z"/>
<path d="M2392 1134 c9 -9 21 -13 27 -9 16 10 3 25 -22 25 -20 0 -20 -1 -5
-16z"/>
<path d="M2569 1123 c-13 -16 -12 -17 4 -4 9 7 17 15 17 17 0 8 -8 3 -21 -13z"/>
<path d="M3540 1124 c0 -14 3 -14 15 -4 8 7 15 14 15 16 0 2 -7 4 -15 4 -8 0
-15 -7 -15 -16z"/>
<path d="M4035 1130 c-4 -6 3 -10 14 -10 25 0 27 6 6 13 -8 4 -17 2 -20 -3z"/>
<path d="M4175 1121 c44 -20 115 -37 100 -23 -9 8 -50 21 -115 36 -14 4 -7 -2
15 -13z"/>
<path d="M4128 1113 c7 -3 16 -2 19 1 4 3 -2 6 -13 5 -11 0 -14 -3 -6 -6z"/>
<path d="M2420 1101 c0 -11 26 -22 34 -14 12 12 5 23 -14 23 -11 0 -20 -4 -20
-9z"/>
<path d="M3636 1069 c-29 -71 -27 -73 69 -68 28 1 66 3 85 4 19 1 52 2 72 3
20 1 43 8 50 15 16 15 48 18 48 4 0 -9 117 -3 128 7 2 3 1 13 -2 23 -8 26
-116 45 -143 26 -15 -12 -20 -11 -30 3 -12 16 -35 18 -133 12 -19 -2 -56 0
-82 4 l-46 7 -16 -40z"/>
<path d="M3595 1080 c3 -5 8 -10 11 -10 2 0 4 5 4 10 0 6 -5 10 -11 10 -5 0
-7 -4 -4 -10z"/>
<path d="M4305 1077 c11 -8 34 -17 50 -20 17 -3 44 -8 60 -12 34 -6 -54 28
-100 39 -28 7 -29 6 -10 -7z"/>
<path d="M4133 1059 c-1 -15 5 -19 28 -19 25 0 28 2 17 13 -24 24 -44 26 -45
6z"/>
<path d="M2501 1026 c-9 -10 -9 -16 -1 -21 17 -10 37 12 24 25 -8 8 -15 6 -23
-4z"/>
<path d="M766 977 c-58 -100 -95 -175 -89 -180 13 -14 22 -6 34 31 6 20 27 63
46 96 19 32 33 65 31 72 -2 8 -11 0 -22 -19z"/>
<path d="M2299 993 c0 -5 -2 -16 -4 -25 -2 -10 0 -18 5 -18 4 0 8 11 8 25 0
22 -7 36 -9 18z"/>
<path d="M1305 969 c-4 -6 -5 -12 -2 -15 2 -3 7 2 10 11 7 17 1 20 -8 4z"/>
<path d="M1390 959 c0 -5 9 -9 20 -9 11 0 20 2 20 4 0 2 -9 6 -20 9 -11 3 -20
1 -20 -4z"/>
<path d="M1268 888 c-12 -12 -30 -23 -40 -23 -22 -2 -23 4 -2 19 13 10 8 13
-29 14 -51 3 -53 1 -63 -88 l-7 -61 59 2 c38 2 59 -2 62 -10 7 -20 32 8 32 35
0 13 3 24 8 24 4 0 7 25 8 55 0 30 -1 55 -3 55 -2 0 -13 -10 -25 -22z"/>
<path d="M1354 875 c-3 -14 -7 -49 -8 -78 -1 -41 2 -51 14 -49 27 6 81 -9 74
-20 -5 -7 -2 -8 7 -2 8 4 20 9 27 10 20 3 19 2 29 81 8 62 7 71 -6 72 -9 0
-42 3 -73 6 -55 6 -58 5 -64 -20z"/>
<path d="M1579 892 c-18 -3 -29 -48 -29 -119 0 -30 4 -41 13 -38 7 3 35 7 62
9 28 2 56 4 64 5 10 1 11 4 2 15 -7 8 -8 16 -2 18 5 1 12 30 16 63 3 33 3 55
-2 49 -5 -7 -26 -9 -58 -5 -27 4 -57 5 -66 3z"/>
<path d="M1766 878 c-8 -36 -33 -296 -32 -321 1 -12 7 -21 14 -20 7 2 12 -7
12 -20 0 -16 3 -18 9 -9 7 11 9 11 14 -2 5 -12 0 -16 -22 -16 -27 0 -28 -2
-35 -61 -9 -88 -8 -99 9 -99 8 0 12 -6 9 -14 -3 -8 1 -18 8 -22 9 -6 6 -10
-12 -14 -23 -5 -25 -10 -28 -78 l-3 -71 58 -16 c32 -9 63 -18 70 -20 16 -5 21
17 24 95 2 90 1 100 -13 98 -7 -2 -14 7 -16 20 -2 15 2 22 12 22 10 0 13 -6
10 -18 -5 -16 -5 -16 6 0 6 10 14 40 17 68 3 27 10 47 14 44 5 -3 9 0 9 5 0 6
-4 11 -10 11 -5 0 -10 11 -10 25 0 14 -6 25 -12 25 -9 0 -8 4 2 10 9 6 10 10
3 10 -6 0 -15 -4 -18 -10 -3 -6 -17 -10 -30 -10 -19 0 -23 4 -18 17 4 11 3 14
-5 9 -8 -5 -10 -2 -6 8 3 9 10 16 16 16 5 0 6 -4 3 -10 -3 -5 1 -10 9 -10 9 0
16 6 16 13 0 9 2 9 8 -1 17 -26 42 -2 42 42 1 22 3 58 6 79 l6 37 -49 1 c-26
1 -56 1 -65 0 -13 -2 -18 5 -18 23 0 24 3 26 43 26 36 0 46 -4 55 -22 11 -23
11 -23 11 -2 1 12 8 24 16 28 11 4 15 22 15 76 0 70 0 70 -27 71 -16 0 -47 2
-70 5 -38 4 -43 3 -47 -18z"/>
<path d="M1977 894 c-4 -4 -7 -19 -7 -34 0 -15 -2 -29 -5 -32 -5 -5 -18 -202
-18 -277 0 -26 6 -47 14 -52 11 -7 10 -9 -3 -9 -13 0 -18 -8 -18 -31 0 -20 -4
-28 -12 -23 -7 5 -8 3 -3 -6 5 -8 7 -36 6 -62 -2 -38 1 -48 13 -48 10 0 16 -9
17 -22 0 -22 1 -22 10 2 7 18 12 21 18 11 7 -10 9 -10 13 1 3 7 19 13 39 12
19 -1 37 4 41 10 4 6 8 49 9 96 0 47 4 124 7 173 6 69 4 87 -6 87 -8 0 -12 9
-10 23 2 12 9 21 16 19 8 -1 12 17 12 60 0 35 3 74 7 88 6 22 5 24 -10 11 -9
-7 -17 -10 -17 -6 0 4 -7 2 -16 -5 -12 -11 -15 -11 -12 1 2 10 -9 15 -37 17
-23 2 -44 0 -48 -4z m33 -173 c0 -5 -9 -11 -20 -14 -12 -3 -20 0 -20 7 0 6 9
12 20 13 11 1 20 -2 20 -6z m50 -11 c-6 -11 -12 -20 -14 -20 -2 0 -2 9 1 20 3
11 9 20 15 20 5 0 4 -9 -2 -20z m10 -185 c0 -8 -4 -15 -10 -15 -5 0 -7 7 -4
15 4 8 8 15 10 15 2 0 4 -7 4 -15z m-82 -30 c-3 -3 -9 2 -12 12 -6 14 -5 15 5
6 7 -7 10 -15 7 -18z"/>
<path d="M2178 889 c-8 -5 -13 -40 -15 -106 -1 -54 -6 -154 -12 -223 -6 -69
-11 -151 -11 -182 l0 -58 70 0 69 0 7 35 c3 19 4 67 2 105 -2 39 0 70 4 70 4
0 8 25 8 56 0 30 5 64 10 75 10 17 6 20 -35 31 -25 7 -45 16 -45 21 0 4 5 5
10 2 6 -3 10 -2 10 3 0 5 14 12 30 16 30 5 30 6 30 74 l0 69 -36 -4 c-20 -2
-33 0 -30 6 7 11 -49 20 -66 10z"/>
<path d="M968 868 c-11 -11 -14 -20 -7 -24 8 -4 7 -9 -2 -15 -10 -6 -5 -8 14
-7 24 2 41 28 17 28 -5 0 -10 5 -10 11 0 5 4 8 9 4 5 -3 13 0 17 6 4 7 3 9 -4
5 -5 -3 -12 -3 -14 2 -1 4 -11 0 -20 -10z"/>
<path d="M1051 869 c-15 -6 -21 -14 -17 -24 3 -8 1 -15 -3 -15 -15 0 -22 -32
-10 -46 9 -11 7 -14 -10 -14 -11 0 -21 -6 -21 -14 0 -10 7 -12 22 -8 16 4 19
2 13 -9 -7 -12 -6 -12 9 0 14 12 19 12 26 2 5 -8 11 15 15 58 4 40 6 74 4 75
-2 2 -15 0 -28 -5z"/>
<path d="M820 857 c0 -8 -7 -28 -15 -45 -9 -17 -18 -53 -22 -80 -4 -39 -2 -50
11 -55 11 -4 17 0 20 16 8 37 16 177 11 177 -3 0 -5 -6 -5 -13z"/>
<path d="M891 807 c0 -16 -5 -26 -11 -22 -5 3 -10 -1 -10 -9 0 -9 5 -16 10
-16 15 0 22 24 17 52 -4 20 -4 20 -6 -5z"/>
<path d="M956 796 c3 -8 1 -17 -5 -21 -6 -3 -11 -13 -11 -21 0 -17 30 -19 31
-1 0 6 2 22 3 35 2 13 -3 22 -10 22 -8 0 -11 -6 -8 -14z"/>
<path d="M842 750 c0 -14 2 -19 5 -12 2 6 2 18 0 25 -3 6 -5 1 -5 -13z"/>
<path d="M877 733 c-12 -12 -7 -22 8 -17 8 4 15 10 15 15 0 11 -14 12 -23 2z"/>
<path d="M1332 697 c-7 -18 -12 -63 -12 -99 l0 -65 64 3 c58 2 63 0 59 -17 -4
-15 -1 -18 11 -13 9 3 16 11 17 18 6 106 12 141 27 154 9 7 12 11 5 8 -6 -4
-17 -1 -24 7 -8 9 -31 11 -72 9 -52 -3 -59 -2 -54 12 4 9 3 16 -1 16 -5 0 -13
-15 -20 -33z"/>
<path d="M2280 720 c-9 -6 -10 -10 -3 -10 6 0 15 5 18 10 8 12 4 12 -15 0z"/>
<path d="M1040 706 c0 -9 -8 -16 -19 -16 -10 0 -21 -8 -24 -17 -2 -10 -8 -27
-13 -37 -5 -13 -4 -17 3 -13 12 8 20 -16 19 -55 -1 -24 2 -28 25 -28 25 0 26
2 32 76 6 60 4 79 -8 90 -13 14 -15 14 -15 0z"/>
<path d="M1178 713 c7 -3 16 -2 19 1 4 3 -2 6 -13 5 -11 0 -14 -3 -6 -6z"/>
<path d="M1561 704 c9 -11 8 -14 -5 -14 -9 0 -16 -3 -16 -7 0 -5 -3 -40 -7
-79 l-5 -72 33 3 c19 2 53 4 77 4 l43 1 -2 48 c0 26 3 60 7 76 6 24 4 28 -9
23 -10 -4 -20 1 -27 11 -6 10 -13 13 -17 7 -10 -12 -43 -16 -43 -5 0 4 -9 10
-21 13 -16 4 -18 3 -8 -9z"/>
<path d="M1188 702 l-68 -3 -1 -47 c-1 -26 -2 -60 -3 -76 -1 -20 4 -30 18 -35
13 -5 16 -10 8 -15 -17 -10 -15 -26 3 -20 8 4 15 14 15 24 0 13 7 18 23 16 13
-2 28 -5 33 -9 5 -3 18 1 28 8 14 11 20 31 24 83 2 38 1 71 -4 73 -5 2 -39 3
-76 1z"/>
<path d="M952 681 c-9 -5 -10 -15 -4 -31 l9 -24 7 28 c8 32 6 38 -12 27z"/>
<path d="M898 669 c-12 -6 -18 -22 -18 -43 0 -37 25 -57 28 -23 0 12 6 23 11
25 7 2 8 10 1 21 -5 10 -6 21 -3 25 9 9 1 7 -19 -5z"/>
<path d="M861 624 c0 -11 3 -14 6 -6 3 7 2 16 -1 19 -3 4 -6 -2 -5 -13z"/>
<path d="M927 585 c-4 -8 -2 -17 3 -20 6 -4 10 3 10 14 0 25 -6 27 -13 6z"/>
<path d="M2320 585 c0 -8 4 -15 8 -15 5 0 9 7 9 15 0 8 -4 15 -9 15 -4 0 -8
-7 -8 -15z"/>
<path d="M2520 540 c0 -5 5 -10 11 -10 5 0 7 5 4 10 -3 6 -8 10 -11 10 -2 0
-4 -4 -4 -10z"/>
<path d="M3980 531 c0 -6 5 -13 10 -16 6 -3 10 1 10 9 0 9 -4 16 -10 16 -5 0
-10 -4 -10 -9z"/>
<path d="M1542 521 c-11 -7 -11 -9 1 -14 16 -6 27 0 27 15 0 10 -11 10 -28 -1z"/>
<path d="M1328 503 c7 -3 16 -2 19 1 4 3 -2 6 -13 5 -11 0 -14 -3 -6 -6z"/>
<path d="M1126 492 c-13 -3 -17 -12 -14 -35 2 -27 12 -38 67 -74 36 -23 66
-41 67 -40 2 1 6 34 9 74 l7 71 -60 4 c-33 1 -67 1 -76 0z"/>
<path d="M1373 492 l-63 -3 -2 -57 c0 -31 -1 -66 -2 -77 -1 -17 7 -21 49 -25
86 -9 92 -5 100 54 4 28 11 58 15 67 18 34 -9 45 -97 41z"/>
<path d="M1530 490 c-4 -3 -11 -45 -14 -95 -3 -49 -3 -84 0 -77 4 8 29 12 74
12 78 0 80 2 80 102 l0 56 -66 4 c-36 1 -70 1 -74 -2z"/>
<path d="M1030 486 c0 -2 7 -9 15 -16 12 -10 15 -10 15 4 0 9 -7 16 -15 16 -8
0 -15 -2 -15 -4z"/>
<path d="M2521 444 c0 -11 3 -14 6 -6 3 7 2 16 -1 19 -3 4 -6 -2 -5 -13z"/>
<path d="M2516 331 c-3 -5 1 -11 9 -15 8 -3 15 -1 15 4 0 13 -18 22 -24 11z"/>
<path d="M1395 300 c-3 -5 -1 -10 4 -10 6 0 11 5 11 10 0 6 -2 10 -4 10 -3 0
-8 -4 -11 -10z"/>
<path d="M1506 285 c-10 -28 -7 -73 7 -78 6 -3 40 -17 75 -31 l62 -25 0 27 c0
15 3 43 6 64 l6 36 -52 0 c-29 1 -56 6 -60 13 -6 8 -9 8 -15 -1 -6 -9 -9 -9
-15 0 -5 8 -9 7 -14 -5z"/>
<path d="M1403 259 c41 -22 53 -20 44 6 -4 10 -19 15 -44 15 l-38 -1 38 -20z"/>
<path d="M1924 269 c-2 -3 -6 -48 -9 -99 -5 -87 -4 -93 11 -75 13 17 15 17 10
3 -6 -20 29 -45 39 -28 6 9 -1 14 -17 11 -5 0 -8 5 -8 12 0 10 16 14 51 16 48
1 50 0 44 -21 -5 -16 -4 -20 3 -13 6 6 13 33 17 60 3 28 8 69 11 93 4 30 2 42
-8 43 -46 4 -140 3 -144 -2z"/>
<path d="M3281 174 c0 -11 3 -14 6 -6 3 7 2 16 -1 19 -3 4 -6 -2 -5 -13z"/>
<path d="M2702 117 c-6 -7 -7 -19 -3 -26 6 -9 10 -5 13 13 6 30 5 31 -10 13z"/>
<path d="M1990 58 c0 -4 9 -8 19 -8 11 0 26 -3 35 -6 9 -3 16 -2 16 4 0 5 -16
12 -35 14 -19 2 -35 0 -35 -4z"/>
</g>
</svg>
