<?xml version="1.0" standalone="no"?>
<!DOCTYPE svg PUBLIC "-//W3C//DTD SVG 20010904//EN"
 "http://www.w3.org/TR/2001/REC-SVG-20010904/DTD/svg10.dtd">
<svg version="1.0" xmlns="http://www.w3.org/2000/svg"
 width="577.000000pt" height="433.000000pt" viewBox="0 0 577.000000 433.000000"
 preserveAspectRatio="xMidYMid meet">

<g transform="translate(0.000000,433.000000) scale(0.100000,-0.100000)"
fill="white" stroke="none">
<path d="M2110 3290 l0 -220 35 0 35 0 0 185 0 185 1275 0 1275 0 0 -1275 0
-1275 -1275 0 -1275 0 0 185 0 185 -35 0 -35 0 0 -220 0 -220 1345 0 1345 0 0
1345 0 1345 -1345 0 -1345 0 0 -220z"/>
<path d="M1806 2938 c-3 -35 -12 -164 -21 -288 -9 -124 -20 -280 -25 -348 -6
-68 -10 -139 -10 -158 l0 -34 73 0 74 0 7 113 c3 61 9 229 13 371 4 168 9 251
15 236 5 -13 27 -105 50 -205 22 -99 52 -234 67 -300 l27 -120 76 -3 76 -3 16
78 c9 43 21 96 26 118 5 22 28 126 51 230 23 105 45 196 49 203 4 8 10 -78 14
-190 10 -308 16 -460 22 -495 l5 -33 75 0 76 0 -6 58 c-4 31 -11 127 -16 212
-20 297 -31 460 -38 537 l-7 78 -102 3 c-100 3 -103 2 -108 -20 -3 -13 -30
-147 -60 -298 -30 -151 -59 -284 -64 -295 -6 -15 -13 4 -30 80 -12 55 -37 170
-56 255 -19 85 -40 183 -47 218 l-12 62 -102 0 -102 0 -6 -62z"/>
<path d="M2720 2556 l0 -446 79 0 80 0 -6 103 c-3 56 -3 137 1 180 l8 77 47 0
46 0 87 -180 87 -180 85 0 c47 0 86 3 86 6 0 3 -11 24 -24 47 -76 132 -175
332 -166 335 36 12 98 74 123 121 50 101 34 217 -42 292 -66 67 -116 80 -323
86 l-168 6 0 -447z m330 306 c45 -22 65 -63 65 -132 -1 -59 -22 -107 -59 -130
-31 -20 -166 -27 -177 -9 -10 16 -12 232 -3 267 6 20 12 22 73 22 43 0 78 -6
101 -18z"/>
<path d="M3440 2555 l0 -445 168 0 c213 0 288 18 355 86 40 40 57 87 57 160 0
71 -11 108 -43 142 -23 25 -86 61 -127 72 -23 6 -21 8 24 29 93 45 134 142
102 239 -39 117 -154 162 -413 162 l-123 0 0 -445z m330 307 c69 -34 77 -137
15 -199 -32 -32 -36 -33 -109 -33 l-76 0 0 125 0 125 68 0 c44 0 79 -6 102
-18z m22 -369 c47 -27 70 -76 65 -140 -6 -88 -69 -132 -189 -133 l-68 0 0 151
0 152 80 -6 c51 -3 91 -12 112 -24z"/>
<path d="M2920 1865 c0 -16 6 -25 15 -25 9 0 15 9 15 25 0 16 -6 25 -15 25 -9
0 -15 -9 -15 -25z"/>
<path d="M3910 1790 c0 -36 -2 -40 -25 -40 -14 0 -25 -4 -25 -10 0 -5 11 -10
24 -10 24 0 24 -1 27 -119 3 -100 7 -122 23 -140 22 -24 86 -30 86 -7 0 9 -8
12 -24 9 -43 -9 -56 27 -56 149 l0 108 35 0 c44 0 46 18 3 22 -30 3 -33 6 -36
41 -5 53 -32 51 -32 -3z"/>
<path d="M1863 1746 c-18 -8 -33 -21 -34 -28 0 -7 -4 -3 -9 10 -7 17 -17 22
-45 22 -22 0 -34 -4 -30 -10 3 -5 15 -10 26 -10 18 0 19 -9 19 -185 0 -178 -1
-185 -20 -185 -11 0 -20 -4 -20 -10 0 -6 27 -10 60 -10 33 0 60 4 60 10 0 6
-11 10 -25 10 -24 0 -25 2 -25 67 0 64 1 66 19 49 26 -23 84 -31 121 -16 51
21 77 94 65 181 -13 93 -85 139 -162 105z m111 -49 c25 -34 29 -139 7 -180
-20 -37 -61 -52 -105 -37 -47 15 -56 34 -56 123 0 60 4 79 21 101 18 23 27 27
67 24 36 -2 49 -9 66 -31z"/>
<path d="M2272 1735 c-29 -24 -30 -24 -35 -5 -4 15 -14 20 -41 20 -20 0 -36
-4 -36 -10 0 -5 11 -10 25 -10 l25 0 0 -125 0 -125 -25 0 c-14 0 -25 -4 -25
-10 0 -6 27 -10 60 -10 33 0 60 4 60 10 0 6 -9 10 -20 10 -19 0 -20 7 -20 100
0 94 2 103 25 125 15 16 36 25 55 25 20 0 30 5 30 15 0 24 -45 18 -78 -10z"/>
<path d="M2553 1746 c-54 -25 -75 -69 -71 -153 3 -64 7 -76 32 -102 35 -37 84
-48 137 -32 46 14 75 54 85 116 18 124 -82 217 -183 171z m107 -26 c10 -5 26
-30 35 -55 51 -131 -59 -247 -153 -162 -49 45 -48 151 1 205 22 24 83 30 117
12z"/>
<path d="M3181 1742 c-91 -46 -97 -218 -9 -272 40 -24 88 -26 135 -4 48 23 27
37 -27 18 -35 -13 -51 -14 -72 -5 -34 13 -68 66 -68 104 l0 27 105 0 105 0 0
25 c0 48 -27 95 -64 110 -46 19 -64 19 -105 -3z m94 -18 c18 -7 45 -54 45 -79
0 -12 -15 -15 -90 -15 -49 0 -90 2 -90 5 0 19 31 75 47 84 20 12 63 14 88 5z"/>
<path d="M3564 1745 c-46 -24 -69 -70 -68 -140 0 -98 46 -155 124 -155 54 0
110 40 110 79 0 20 -25 11 -35 -11 -13 -30 -60 -52 -92 -43 -85 21 -111 170
-40 235 43 40 137 16 137 -36 0 -15 6 -24 16 -24 26 0 14 60 -17 82 -35 27
-97 32 -135 13z"/>
<path d="M2880 1740 c0 -5 9 -10 20 -10 19 0 20 -7 20 -166 0 -95 -4 -174 -10
-185 -7 -12 -21 -19 -41 -19 -20 0 -29 -4 -26 -12 7 -21 69 -12 89 12 16 20
18 45 18 206 l0 184 -35 0 c-19 0 -35 -4 -35 -10z"/>
</g>
</svg>
